<?xml version="1.0" encoding="utf-8"?>
<!-- Generator: Adobe Illustrator 25.2.1, SVG Export Plug-In . SVG Version: 6.00 Build 0)  -->
<svg version="1.1" id="Layer_1" xmlns="http://www.w3.org/2000/svg" xmlns:xlink="http://www.w3.org/1999/xlink" x="0px" y="0px"
	 viewBox="0 0 242 52.9" style="enable-background:new 0 0 242 52.9;" xml:space="preserve">
<style type="text/css">
	.st0{opacity:0.4;fill:#FF982D;enable-background:new    ;}
	.st1{fill:#FF982D;}
	.st2{fill:#1E1E1E;}
	.st3{font-family:'ProximaSoft-Extrabld';}
	.st4{font-size:19.6032px;}
	.st5{fill:#8E8E8E;}
	.st6{font-family:'ProximaSoft-Medium';}
	.st7{font-size:9.2108px;}
</style>
<g>
	<path class="st0" d="M63,23.2c2.2-5.8-0.7-12.3-6.5-14.5c-1.3-0.5-2.7-0.8-4.1-0.8c-2.2,0-4.4,0.7-6.2,1.9c-5.2-9-16.6-12-25.6-6.9
		c-5.7,3.4-9.3,9.6-9.3,16.3c0,0.3,0,0.6,0,1c-8.7,3-13.4,12.6-10.3,21.4c2.3,6.7,8.7,11.2,15.9,11.2h43.1c8.3,0,15-6.7,15-15
		C74.9,30.8,69.9,24.7,63,23.2z M46.5,34.1L35.7,45c-1.1,1.1-2.9,1.1-4,0l0,0L20.9,34.1c-1.1-1.1-1.1-2.9,0-4l0,0l1.3-1.3
		c1.1-1.1,2.9-1.1,4,0c0,0,0,0,0.1,0.1l3.8,4.1V18.3c0-1.6,1.2-2.8,2.8-2.8l0,0h1.9c1.6,0,2.8,1.2,2.8,2.8l0,0V33l3.8-4.1
		c1-1.1,2.9-1.2,4-0.1c0,0,0.1,0,0.1,0.1l1.3,1.3C47.6,31.2,47.6,33,46.5,34.1L46.5,34.1z"/>
	<path class="st1" d="M46.5,34.1L35.7,45c-1.1,1.1-2.9,1.1-4,0l0,0L20.9,34.1c-1.1-1.1-1.1-2.9,0-4l0,0l1.3-1.3c1.1-1.1,2.9-1.1,4,0
		c0,0,0,0,0.1,0.1l3.8,4.1V18.3c0-1.6,1.2-2.8,2.8-2.8l0,0h1.9c1.6,0,2.8,1.2,2.8,2.8l0,0V33l3.8-4.1c1-1.1,2.9-1.2,4-0.1
		c0,0,0.1,0,0.1,0.1l1.3,1.3C47.6,31.2,47.6,33,46.5,34.1L46.5,34.1z"/>
</g>
<text transform="matrix(1 0 0 1 85.1647 27.3074)" class="st2 st3 st4">Fancy Info Getter</text>
<text transform="matrix(1 0 0 1 86.165 41.2054)" class="st5 st6 st7">A demo plugin by Thomas McGee.</text>
</svg>
