<?xml version="1.0" encoding="utf-8"?>
<!-- Generator: Adobe Illustrator 25.2.1, SVG Export Plug-In . SVG Version: 6.00 Build 0)  -->
<svg version="1.1" id="Layer_1" xmlns="http://www.w3.org/2000/svg" xmlns:xlink="http://www.w3.org/1999/xlink" x="0px" y="0px"
	 viewBox="0 0 242 52.9" style="enable-background:new 0 0 242 52.9;" xml:space="preserve">
<style type="text/css">
	.st0{opacity:0.4;fill:#FF982D;enable-background:new    ;}
	.st1{fill:#FF982D;}
	.st2{enable-background:new    ;}
	.st3{fill:#1E1E1E;}
	.st4{fill:#8E8E8E;}
</style>
<g>
	<path class="st0" d="M63,23.2c2.2-5.8-0.7-12.3-6.5-14.5c-1.3-0.5-2.7-0.8-4.1-0.8c-2.2,0-4.4,0.7-6.2,1.9c-5.2-9-16.6-12-25.6-6.9
		c-5.7,3.4-9.3,9.6-9.3,16.3c0,0.3,0,0.6,0,1c-8.7,3-13.4,12.6-10.3,21.4c2.3,6.7,8.7,11.2,15.9,11.2h43.1c8.3,0,15-6.7,15-15
		C74.9,30.8,69.9,24.7,63,23.2z M46.5,34.1L35.7,45c-1.1,1.1-2.9,1.1-4,0l0,0L20.9,34.1c-1.1-1.1-1.1-2.9,0-4l0,0l1.3-1.3
		c1.1-1.1,2.9-1.1,4,0c0,0,0,0,0.1,0.1l3.8,4.1V18.3c0-1.6,1.2-2.8,2.8-2.8l0,0h1.9c1.6,0,2.8,1.2,2.8,2.8l0,0V33l3.8-4.1
		c1-1.1,2.9-1.2,4-0.1c0,0,0.1,0,0.1,0.1l1.3,1.3C47.6,31.2,47.6,33,46.5,34.1L46.5,34.1z"/>
	<path class="st1" d="M46.5,34.1L35.7,45c-1.1,1.1-2.9,1.1-4,0l0,0L20.9,34.1c-1.1-1.1-1.1-2.9,0-4l0,0l1.3-1.3c1.1-1.1,2.9-1.1,4,0
		c0,0,0,0,0.1,0.1l3.8,4.1V18.3c0-1.6,1.2-2.8,2.8-2.8l0,0h1.9c1.6,0,2.8,1.2,2.8,2.8l0,0V33l3.8-4.1c1-1.1,2.9-1.2,4-0.1
		c0,0,0.1,0,0.1,0.1l1.3,1.3C47.6,31.2,47.6,33,46.5,34.1L46.5,34.1z"/>
</g>
<g class="st2">
	<path class="st3" d="M86.3,25.8V16c0-1.2,0.6-1.8,1.8-1.8h6.5c0.8,0,1.4,0.6,1.4,1.4c0,0.8-0.6,1.4-1.4,1.4h-5v2.2h4.8
		c0.8,0,1.4,0.6,1.4,1.4s-0.6,1.4-1.4,1.4h-4.8v3.7c0,0.9-0.7,1.7-1.7,1.7C87.1,27.5,86.3,26.7,86.3,25.8z"/>
	<path class="st3" d="M105.8,21.4v4.5c0,0.9-0.6,1.6-1.5,1.6c-0.7,0-1.3-0.5-1.5-1.1c-0.6,0.7-1.7,1.2-2.9,1.2c-1.5,0-3.3-1-3.3-3.1
		c0-2.3,1.8-3,3.3-3c1.3,0,2.4,0.4,2.9,1.1v-1.2c0-0.8-0.7-1.4-1.9-1.4c-0.6,0-1.3,0.2-1.9,0.5c-0.2,0.1-0.3,0.1-0.5,0.1
		c-0.6,0-1.1-0.5-1.1-1.1c0-0.4,0.3-0.8,0.6-1c1.1-0.6,2.4-0.9,3.5-0.9C103.6,17.6,105.8,18.4,105.8,21.4z M102.7,24.9V24
		c-0.3-0.4-1-0.7-1.7-0.7c-0.8,0-1.5,0.4-1.5,1.1s0.7,1.1,1.5,1.1C101.7,25.6,102.4,25.3,102.7,24.9z"/>
	<path class="st3" d="M117.2,20.6V26c0,0.8-0.7,1.5-1.5,1.5c-0.8,0-1.5-0.7-1.5-1.5v-4.1c0-1.2-0.6-1.6-1.5-1.6
		c-0.9,0-1.5,0.5-1.8,0.9V26c0,0.8-0.7,1.5-1.5,1.5c-0.8,0-1.5-0.7-1.5-1.5v-6.8c0-0.9,0.6-1.5,1.5-1.5c0.8,0,1.4,0.6,1.5,1.4
		c0.6-0.7,1.7-1.4,3.3-1.4C116.3,17.6,117.2,18.9,117.2,20.6z"/>
	<path class="st3" d="M123.9,17.6c1.2,0,2.1,0.3,2.7,0.7c0.4,0.2,0.7,0.6,0.7,1.1c0,0.7-0.6,1.4-1.4,1.4c-0.3,0-0.5-0.1-0.7-0.2
		c-0.4-0.3-0.7-0.4-1.2-0.4c-1.3,0-2.2,0.9-2.2,2.3c0,1.4,1,2.3,2.2,2.3c0.5,0,0.9-0.1,1.2-0.4c0.2-0.1,0.5-0.2,0.7-0.2
		c0.8,0,1.4,0.6,1.4,1.4c0,0.5-0.3,0.9-0.7,1.1c-0.7,0.5-1.6,0.7-2.7,0.7c-3,0-5.2-2-5.2-5C118.7,19.6,120.9,17.6,123.9,17.6z"/>
	<path class="st3" d="M129.7,28.5l0.1,0c0.6,0,1.1-0.2,1.2-0.5l0.2-0.5l-3.1-7.7c-0.1-0.2-0.1-0.4-0.1-0.6c0-0.8,0.6-1.5,1.5-1.5
		c0.6,0,1.2,0.3,1.4,0.9l2,5.4l1.9-5.4c0.2-0.6,0.8-0.9,1.4-0.9c0.8,0,1.5,0.7,1.5,1.5c0,0.2-0.1,0.4-0.1,0.6l-3.6,8.9
		c-0.8,1.9-2.3,2.5-3.7,2.5h-0.2c-0.9,0-1.5-0.7-1.5-1.4C128.6,29.1,129.1,28.5,129.7,28.5z"/>
	<path class="st3" d="M144.2,25.8v-10c0-0.9,0.7-1.7,1.7-1.7c0.9,0,1.7,0.8,1.7,1.7v10c0,0.9-0.7,1.7-1.7,1.7
		C144.9,27.5,144.2,26.7,144.2,25.8z"/>
	<path class="st3" d="M159.3,20.6V26c0,0.8-0.7,1.5-1.5,1.5c-0.8,0-1.5-0.7-1.5-1.5v-4.1c0-1.2-0.6-1.6-1.5-1.6
		c-0.9,0-1.5,0.5-1.8,0.9V26c0,0.8-0.7,1.5-1.5,1.5c-0.8,0-1.5-0.7-1.5-1.5v-6.8c0-0.9,0.6-1.5,1.5-1.5c0.8,0,1.4,0.6,1.5,1.4
		c0.6-0.7,1.7-1.4,3.3-1.4C158.3,17.6,159.3,18.9,159.3,20.6z"/>
	<path class="st3" d="M167,19.2c0,0.7-0.6,1.3-1.3,1.3H165V26c0,0.8-0.7,1.5-1.5,1.5c-0.8,0-1.5-0.7-1.5-1.5v-5.5h-0.4
		c-0.7,0-1.3-0.6-1.3-1.3c0-0.7,0.6-1.3,1.3-1.3h0.4v-0.5c0-2,1.4-3.3,3.4-3.3c0.4,0,0.7,0,1.1,0.1c0.5,0.1,0.9,0.5,0.9,1.1
		c0,0.6-0.5,1.1-1.1,1.1H166c-0.6,0-1,0.4-1,1.1v0.4h0.8C166.5,17.8,167,18.4,167,19.2z"/>
	<path class="st3" d="M167.3,22.6c0-2.7,1.9-5,5.2-5c3.3,0,5.2,2.3,5.2,5s-1.9,5-5.2,5C169.3,27.5,167.3,25.2,167.3,22.6z
		 M174.6,22.6c0-1.3-0.7-2.3-2.1-2.3c-1.3,0-2,1-2,2.3c0,1.3,0.7,2.3,2,2.3C173.8,24.9,174.6,23.8,174.6,22.6z"/>
	<path class="st3" d="M196.5,21.3v2.4c0,0.9-0.2,1.6-0.9,2.2c-1.3,1-2.9,1.7-4.8,1.7c-3.9,0-7.1-2.6-7.1-6.8s3.2-6.8,7.1-6.8
		c1.9,0,3.2,0.6,4.3,1.5c0.4,0.3,0.6,0.7,0.6,1.2c0,0.9-0.7,1.6-1.6,1.6c-0.4,0-0.8-0.2-1.1-0.4c-0.6-0.5-1.3-0.9-2.2-0.9
		c-2.1,0-3.6,1.6-3.6,3.8s1.5,3.8,3.6,3.8c1.1,0,2-0.4,2.4-0.8v-1h-1.7c-0.8,0-1.4-0.7-1.4-1.5c0-0.8,0.6-1.5,1.4-1.5h3.6
		C195.9,19.8,196.5,20.5,196.5,21.3z"/>
	<path class="st3" d="M202.9,17.6c2.8,0,4.8,2.1,4.8,4.5c0,1.1-0.6,1.5-1.8,1.5H201c0.2,0.9,1,1.7,2.4,1.7c0.5,0,1.1-0.1,1.6-0.4
		c0.1-0.1,0.3-0.1,0.5-0.1c0.6,0,1.1,0.5,1.1,1.2c0,0.5-0.3,0.9-0.7,1c-0.9,0.5-2,0.6-3,0.6c-2.9,0-5.2-1.9-5.2-5
		C197.9,19.8,199.9,17.6,202.9,17.6z M201,21.6h3.9c-0.1-0.7-0.6-1.6-2-1.6C201.6,19.9,201.1,20.9,201,21.6z"/>
	<path class="st3" d="M215,26.2c0,0.6-0.4,1.1-1,1.2c-0.3,0.1-0.8,0.2-1.2,0.2c-1.9,0-3-1-3-2.8v-4.3h-0.4c-0.7,0-1.3-0.6-1.3-1.3
		c0-0.7,0.6-1.3,1.3-1.3h0.4v-1.3c0-0.8,0.7-1.5,1.5-1.5c0.8,0,1.5,0.7,1.5,1.5v1.3h0.8c0.7,0,1.3,0.6,1.3,1.3
		c0,0.7-0.6,1.3-1.3,1.3h-0.8v3.5c0,0.5,0.3,0.9,0.8,1h0.3C214.5,24.9,215,25.5,215,26.2z"/>
	<path class="st3" d="M222.4,26.2c0,0.6-0.4,1.1-1,1.2c-0.3,0.1-0.8,0.2-1.2,0.2c-1.9,0-3-1-3-2.8v-4.3h-0.4c-0.7,0-1.3-0.6-1.3-1.3
		c0-0.7,0.6-1.3,1.3-1.3h0.4v-1.3c0-0.8,0.7-1.5,1.5-1.5c0.8,0,1.5,0.7,1.5,1.5v1.3h0.8c0.7,0,1.3,0.6,1.3,1.3
		c0,0.7-0.6,1.3-1.3,1.3h-0.8v3.5c0,0.5,0.3,0.9,0.8,1h0.3C221.9,24.9,222.4,25.5,222.4,26.2z"/>
	<path class="st3" d="M228,17.6c2.8,0,4.8,2.1,4.8,4.5c0,1.1-0.6,1.5-1.8,1.5H226c0.2,0.9,1,1.7,2.4,1.7c0.5,0,1.1-0.1,1.6-0.4
		c0.1-0.1,0.3-0.1,0.5-0.1c0.6,0,1.1,0.5,1.1,1.2c0,0.5-0.3,0.9-0.7,1c-0.9,0.5-2,0.6-3,0.6c-2.9,0-5.2-1.9-5.2-5
		C222.9,19.8,225,17.6,228,17.6z M226,21.6h3.9c-0.1-0.7-0.6-1.6-2-1.6C226.6,19.9,226.1,20.9,226,21.6z"/>
	<path class="st3" d="M240.4,19c0,0.8-0.4,1.4-1.3,1.5c-0.6,0.1-1.5,0.3-1.9,0.8V26c0,0.8-0.7,1.5-1.5,1.5c-0.8,0-1.5-0.7-1.5-1.5
		v-6.7c0-0.9,0.6-1.6,1.5-1.6c0.8,0,1.5,0.5,1.5,1.3c0.3-0.5,0.7-0.9,1.2-1.2c0.2-0.1,0.5-0.2,0.7-0.2
		C239.9,17.6,240.4,18.2,240.4,19z"/>
</g>
<g class="st2">
	<path class="st4" d="M92,40.8c0,0.3-0.2,0.5-0.5,0.5c-0.2,0-0.4-0.1-0.4-0.3l-0.4-1h-3.1l-0.4,1c-0.1,0.2-0.2,0.3-0.4,0.3
		c-0.3,0-0.5-0.2-0.5-0.5c0-0.1,0-0.1,0-0.2l2-5.1c0.1-0.3,0.4-0.5,0.7-0.5c0.4,0,0.6,0.2,0.8,0.5l2,5.1C92,40.7,92,40.7,92,40.8z
		 M90.5,39.1l-1.2-3.3L88,39.1H90.5z"/>
	<path class="st4" d="M99.3,35.4v5.4c0,0.2-0.2,0.4-0.4,0.4c-0.2,0-0.4-0.2-0.4-0.4v-0.3c-0.3,0.5-0.9,0.7-1.5,0.7
		c-1.2,0-2-0.9-2-2.3c0-1.4,0.8-2.3,2-2.3c0.6,0,1.1,0.3,1.5,0.8v-2c0-0.2,0.2-0.4,0.4-0.4C99.2,35,99.3,35.2,99.3,35.4z M98.5,39.9
		V38c-0.2-0.4-0.7-0.7-1.2-0.7c-0.8,0-1.3,0.7-1.3,1.6c0,0.9,0.5,1.6,1.3,1.6C97.8,40.6,98.3,40.3,98.5,39.9z"/>
	<path class="st4" d="M102.7,36.6c1.3,0,2.2,1,2.2,2.2c0,0.2-0.2,0.4-0.5,0.4h-3c0.1,0.8,0.6,1.4,1.5,1.4c0.4,0,0.8-0.1,1.1-0.4
		c0,0,0.1,0,0.2,0c0.2,0,0.3,0.1,0.3,0.3c0,0.1-0.1,0.2-0.1,0.3c-0.4,0.3-1,0.5-1.6,0.5c-1.3,0-2.3-0.9-2.3-2.3
		C100.5,37.7,101.4,36.6,102.7,36.6z M101.3,38.7h2.7c0-0.6-0.4-1.3-1.4-1.3C101.8,37.3,101.4,38,101.3,38.7z"/>
	<path class="st4" d="M112.2,38v2.8c0,0.2-0.2,0.4-0.4,0.4c-0.2,0-0.4-0.2-0.4-0.4v-2.6c0-0.5-0.2-0.9-0.8-0.9
		c-0.5,0-0.9,0.3-1.1,0.6v2.8c0,0.2-0.2,0.4-0.4,0.4c-0.2,0-0.4-0.2-0.4-0.4v-2.6c0-0.5-0.2-0.9-0.8-0.9c-0.4,0-0.9,0.3-1.1,0.6v2.8
		c0,0.2-0.2,0.4-0.4,0.4c-0.2,0-0.4-0.2-0.4-0.4v-3.7c0-0.2,0.2-0.4,0.4-0.4c0.2,0,0.4,0.2,0.4,0.4v0.3c0.2-0.3,0.8-0.7,1.4-0.7
		c0.7,0,1.1,0.4,1.2,0.8c0.3-0.4,0.8-0.8,1.5-0.8C111.8,36.6,112.2,37.1,112.2,38z"/>
	<path class="st4" d="M113.3,39c0-1.3,0.9-2.3,2.2-2.3c1.4,0,2.2,1.1,2.2,2.3c0,1.3-0.9,2.3-2.2,2.3C114.2,41.3,113.3,40.3,113.3,39
		z M117,39c0-0.8-0.5-1.6-1.4-1.6c-0.9,0-1.4,0.8-1.4,1.6c0,0.8,0.5,1.6,1.4,1.6C116.5,40.6,117,39.8,117,39z"/>
	<path class="st4" d="M125.5,39c0,1.5-0.8,2.3-2,2.3c-0.6,0-1.1-0.3-1.5-0.8v2c0,0.2-0.2,0.4-0.4,0.4c-0.2,0-0.4-0.2-0.4-0.4v-5.4
		c0-0.2,0.2-0.4,0.4-0.4c0.2,0,0.4,0.2,0.4,0.4v0.3c0.3-0.4,0.9-0.7,1.5-0.7C124.7,36.6,125.5,37.5,125.5,39z M124.7,39
		c0-0.9-0.5-1.6-1.3-1.6c-0.5,0-1,0.3-1.2,0.7v1.9c0.2,0.4,0.7,0.7,1.2,0.7C124.2,40.6,124.7,39.9,124.7,39z"/>
	<path class="st4" d="M126.7,40.8v-5.4c0-0.2,0.2-0.4,0.4-0.4c0.2,0,0.4,0.2,0.4,0.4v5.4c0,0.2-0.2,0.4-0.4,0.4
		C126.9,41.3,126.7,41.1,126.7,40.8z"/>
	<path class="st4" d="M132.7,37.1v3.7c0,0.2-0.2,0.4-0.4,0.4c-0.2,0-0.4-0.2-0.4-0.4v-0.2c-0.3,0.4-0.9,0.7-1.6,0.7
		c-0.9,0-1.4-0.5-1.4-1.4v-2.8c0-0.2,0.2-0.4,0.4-0.4c0.2,0,0.4,0.2,0.4,0.4v2.5c0,0.7,0.4,1,0.9,1c0.5,0,1-0.3,1.2-0.6v-2.8
		c0-0.2,0.2-0.4,0.4-0.4C132.5,36.7,132.7,36.9,132.7,37.1z"/>
	<path class="st4" d="M138.2,37.1V41c0,1.5-1.1,2-2.2,2c-0.6,0-1.1-0.1-1.6-0.5c-0.1-0.1-0.1-0.2-0.1-0.3c0-0.2,0.2-0.3,0.4-0.3
		c0.1,0,0.1,0,0.2,0.1c0.3,0.3,0.7,0.4,1.2,0.4c0.7,0,1.4-0.3,1.4-1.3v-0.6c-0.3,0.5-0.9,0.8-1.5,0.8c-1.2,0-2-0.8-2-2.3
		c0-1.4,0.8-2.3,2-2.3c0.6,0,1.1,0.3,1.5,0.8v-0.3c0-0.2,0.2-0.4,0.4-0.4C138,36.7,138.2,36.9,138.2,37.1z M137.3,39.8V38
		c-0.2-0.4-0.7-0.7-1.2-0.7c-0.8,0-1.3,0.6-1.3,1.6c0,0.9,0.5,1.6,1.3,1.6C136.6,40.5,137.1,40.2,137.3,39.8z"/>
	<path class="st4" d="M139.4,35.3c0-0.3,0.2-0.5,0.5-0.5c0.3,0,0.5,0.2,0.5,0.5s-0.2,0.5-0.5,0.5C139.7,35.9,139.4,35.6,139.4,35.3z
		 M139.6,40.8v-3.7c0-0.2,0.2-0.4,0.4-0.4c0.2,0,0.4,0.2,0.4,0.4v3.7c0,0.2-0.2,0.4-0.4,0.4C139.7,41.3,139.6,41.1,139.6,40.8z"/>
	<path class="st4" d="M145.6,38.1v2.8c0,0.2-0.2,0.4-0.4,0.4c-0.2,0-0.4-0.2-0.4-0.4v-2.5c0-0.7-0.4-1-0.9-1c-0.5,0-1,0.3-1.2,0.6
		v2.8c0,0.2-0.2,0.4-0.4,0.4c-0.2,0-0.4-0.2-0.4-0.4v-3.7c0-0.2,0.2-0.4,0.4-0.4c0.2,0,0.4,0.2,0.4,0.4v0.2c0.3-0.4,0.9-0.7,1.6-0.7
		C145.1,36.6,145.6,37.1,145.6,38.1z"/>
	<path class="st4" d="M153.6,39c0,1.5-0.8,2.3-2,2.3c-0.6,0-1.1-0.3-1.5-0.7v0.3c0,0.2-0.2,0.4-0.4,0.4c-0.2,0-0.4-0.2-0.4-0.4v-5.4
		c0-0.2,0.2-0.4,0.4-0.4c0.2,0,0.4,0.2,0.4,0.4v2c0.4-0.5,0.9-0.7,1.5-0.7C152.7,36.6,153.6,37.6,153.6,39z M152.7,39
		c0-0.9-0.5-1.6-1.3-1.6c-0.5,0-1,0.3-1.2,0.7v1.9c0.2,0.4,0.7,0.6,1.2,0.6C152.2,40.6,152.7,39.9,152.7,39z"/>
	<path class="st4" d="M154.8,42.3c0,0,0.1,0,0.1,0c0.3,0,0.5-0.1,0.6-0.4l0.3-0.6l-1.6-4c0-0.1,0-0.1,0-0.2c0-0.2,0.2-0.4,0.4-0.4
		c0.2,0,0.3,0.1,0.4,0.3l1.3,3.3l1.3-3.3c0.1-0.1,0.2-0.3,0.4-0.3c0.2,0,0.4,0.2,0.4,0.4c0,0.1,0,0.1,0,0.2l-2,4.8
		c-0.3,0.7-0.8,0.9-1.4,1c0,0-0.1,0-0.2,0c-0.2,0-0.3-0.2-0.3-0.4C154.4,42.4,154.6,42.3,154.8,42.3z"/>
	<path class="st4" d="M163.1,40.8v-4.9h-1.5c-0.2,0-0.4-0.2-0.4-0.4c0-0.2,0.2-0.4,0.4-0.4h4c0.2,0,0.4,0.2,0.4,0.4
		c0,0.2-0.2,0.4-0.4,0.4H164v4.9c0,0.2-0.2,0.5-0.5,0.5C163.3,41.3,163.1,41,163.1,40.8z"/>
	<path class="st4" d="M169.9,40.8v-2.5c0-0.7-0.4-1-0.9-1c-0.5,0-1,0.3-1.2,0.6v2.8c0,0.2-0.2,0.4-0.4,0.4c-0.2,0-0.4-0.2-0.4-0.4
		v-5.4c0-0.2,0.2-0.4,0.4-0.4c0.2,0,0.4,0.2,0.4,0.4v2c0.3-0.4,0.9-0.7,1.6-0.7c0.9,0,1.4,0.5,1.4,1.4v2.8c0,0.2-0.2,0.4-0.4,0.4
		C170.1,41.3,169.9,41.1,169.9,40.8z"/>
	<path class="st4" d="M171.9,39c0-1.3,0.9-2.3,2.2-2.3c1.4,0,2.2,1.1,2.2,2.3c0,1.3-0.9,2.3-2.2,2.3C172.8,41.3,171.9,40.3,171.9,39
		z M175.5,39c0-0.8-0.5-1.6-1.4-1.6c-0.9,0-1.4,0.8-1.4,1.6c0,0.8,0.5,1.6,1.4,1.6C175,40.6,175.5,39.8,175.5,39z"/>
	<path class="st4" d="M183.8,38v2.8c0,0.2-0.2,0.4-0.4,0.4c-0.2,0-0.4-0.2-0.4-0.4v-2.6c0-0.5-0.2-0.9-0.8-0.9
		c-0.5,0-0.9,0.3-1.1,0.6v2.8c0,0.2-0.2,0.4-0.4,0.4c-0.2,0-0.4-0.2-0.4-0.4v-2.6c0-0.5-0.2-0.9-0.8-0.9c-0.4,0-0.9,0.3-1.1,0.6v2.8
		c0,0.2-0.2,0.4-0.4,0.4c-0.2,0-0.4-0.2-0.4-0.4v-3.7c0-0.2,0.2-0.4,0.4-0.4c0.2,0,0.4,0.2,0.4,0.4v0.3c0.2-0.3,0.8-0.7,1.4-0.7
		c0.7,0,1.1,0.4,1.2,0.8c0.3-0.4,0.8-0.8,1.5-0.8C183.3,36.6,183.8,37.1,183.8,38z"/>
	<path class="st4" d="M188.7,38.2v2.6c0,0.2-0.2,0.4-0.4,0.4c-0.2,0-0.4-0.2-0.4-0.4v-0.1c-0.3,0.4-0.9,0.6-1.5,0.6
		c-0.7,0-1.5-0.5-1.5-1.5c0-1,0.8-1.5,1.5-1.5c0.6,0,1.1,0.2,1.5,0.6v-0.7c0-0.6-0.5-0.9-1.1-0.9c-0.4,0-0.8,0.1-1.1,0.4
		c-0.1,0-0.1,0.1-0.2,0.1c-0.2,0-0.3-0.2-0.3-0.3c0-0.1,0.1-0.2,0.1-0.3c0.5-0.4,1-0.6,1.6-0.6C187.9,36.6,188.7,37.1,188.7,38.2z
		 M187.9,40.2v-0.8c-0.2-0.3-0.7-0.5-1.1-0.5c-0.6,0-1,0.4-1,0.9s0.4,0.9,1,0.9C187.2,40.7,187.7,40.6,187.9,40.2z"/>
	<path class="st4" d="M189.8,40.5c0-0.2,0.2-0.4,0.4-0.4c0.1,0,0.1,0,0.2,0.1c0.3,0.2,0.8,0.4,1.3,0.4c0.6,0,1-0.3,1-0.6
		c0-0.4-0.5-0.6-1.1-0.7c-0.8-0.2-1.6-0.4-1.6-1.3c0-0.7,0.6-1.3,1.7-1.3c0.6,0,1.1,0.2,1.5,0.5c0.1,0.1,0.1,0.2,0.1,0.3
		c0,0.2-0.2,0.3-0.3,0.3c-0.1,0-0.1,0-0.2-0.1c-0.3-0.2-0.7-0.3-1.1-0.3c-0.6,0-0.9,0.2-0.9,0.6c0,0.4,0.5,0.5,1,0.6
		c0.8,0.2,1.7,0.4,1.7,1.4c0,0.8-0.6,1.4-1.8,1.4c-0.6,0-1.2-0.2-1.6-0.5C189.9,40.8,189.8,40.6,189.8,40.5z"/>
	<path class="st4" d="M202.1,40.8v-4.5l-1.9,4.8c0,0.1-0.1,0.2-0.2,0.2c-0.1,0-0.2-0.1-0.2-0.2l-1.9-4.8v4.5c0,0.2-0.2,0.5-0.5,0.5
		c-0.3,0-0.5-0.2-0.5-0.5v-5c0-0.4,0.3-0.8,0.8-0.8c0.3,0,0.6,0.2,0.7,0.5l1.6,4l1.6-4c0.1-0.3,0.4-0.5,0.7-0.5
		c0.4,0,0.8,0.4,0.8,0.8v5c0,0.2-0.2,0.5-0.5,0.5C202.3,41.3,202.1,41,202.1,40.8z"/>
	<path class="st4" d="M206.6,36.6c0.6,0,1.1,0.2,1.4,0.5c0.1,0.1,0.1,0.2,0.1,0.3c0,0.2-0.2,0.4-0.4,0.4c-0.1,0-0.2,0-0.2-0.1
		c-0.3-0.2-0.5-0.3-0.9-0.3c-0.9,0-1.4,0.7-1.4,1.6s0.6,1.6,1.4,1.6c0.3,0,0.6-0.1,0.9-0.3c0.1-0.1,0.1-0.1,0.2-0.1
		c0.2,0,0.4,0.2,0.4,0.4c0,0.1-0.1,0.2-0.1,0.3c-0.3,0.3-0.8,0.5-1.4,0.5c-1.3,0-2.3-1-2.3-2.3C204.3,37.6,205.2,36.6,206.6,36.6z"
		/>
	<path class="st4" d="M214.7,38.5v1.4c0,0.2-0.1,0.4-0.2,0.6c-0.6,0.5-1.3,0.8-2.2,0.8c-1.8,0-3.2-1.3-3.2-3.2s1.4-3.2,3.2-3.2
		c0.9,0,1.6,0.3,2.1,0.8c0.1,0.1,0.1,0.2,0.1,0.3c0,0.2-0.2,0.4-0.4,0.4c-0.1,0-0.2,0-0.3-0.1c-0.4-0.4-0.9-0.6-1.5-0.6
		c-1.3,0-2.2,1-2.2,2.4c0,1.4,1,2.4,2.2,2.4c0.7,0,1.3-0.3,1.6-0.6v-1.1h-1.6c-0.2,0-0.4-0.2-0.4-0.4c0-0.2,0.2-0.4,0.4-0.4h2
		C214.5,38,214.7,38.2,214.7,38.5z"/>
	<path class="st4" d="M217.9,36.6c1.3,0,2.2,1,2.2,2.2c0,0.2-0.2,0.4-0.5,0.4h-3c0.1,0.8,0.6,1.4,1.5,1.4c0.4,0,0.8-0.1,1.1-0.4
		c0,0,0.1,0,0.2,0c0.2,0,0.3,0.1,0.3,0.3c0,0.1-0.1,0.2-0.1,0.3c-0.4,0.3-1,0.5-1.6,0.5c-1.3,0-2.3-0.9-2.3-2.3
		C215.7,37.7,216.6,36.6,217.9,36.6z M216.6,38.7h2.7c0-0.6-0.4-1.3-1.4-1.3C217,37.3,216.6,38,216.6,38.7z"/>
	<path class="st4" d="M223.2,36.6c1.3,0,2.2,1,2.2,2.2c0,0.2-0.2,0.4-0.5,0.4h-3c0.1,0.8,0.6,1.4,1.5,1.4c0.4,0,0.8-0.1,1.1-0.4
		c0,0,0.1,0,0.2,0c0.2,0,0.3,0.1,0.3,0.3c0,0.1-0.1,0.2-0.1,0.3c-0.4,0.3-1,0.5-1.6,0.5c-1.3,0-2.3-0.9-2.3-2.3
		C221,37.7,221.9,36.6,223.2,36.6z M221.8,38.7h2.7c0-0.6-0.4-1.3-1.4-1.3C222.3,37.3,221.9,38,221.8,38.7z"/>
	<path class="st4" d="M226.8,40.2c0.3,0,0.6,0.3,0.6,0.6s-0.3,0.6-0.6,0.6c-0.3,0-0.6-0.3-0.6-0.6S226.5,40.2,226.8,40.2z"/>
</g>
</svg>
